<?xml version="1.0" standalone="no"?>
<!DOCTYPE svg PUBLIC "-//W3C//DTD SVG 20010904//EN"
 "http://www.w3.org/TR/2001/REC-SVG-20010904/DTD/svg10.dtd">
<svg version="1.0" xmlns="http://www.w3.org/2000/svg"
 width="300.000000pt" height="300.000000pt" viewBox="0 0 300.000000 300.000000"
 preserveAspectRatio="xMidYMid meet">
<metadata>
Created by potrace 1.11, written by Peter Selinger 2001-2013
</metadata>
<g transform="translate(0.000000,300.000000) scale(0.100000,-0.100000)"
fill="#000000" stroke="none">
<path d="M1594 2975 c-207 -46 -456 -209 -646 -424 -21 -24 -38 -46 -38 -51 0
-8 119 -6 167 4 16 3 48 8 73 11 25 4 83 13 129 21 46 8 93 14 105 13 20 0 21
0 1 -8 -11 -5 -38 -11 -60 -15 -43 -6 -73 -11 -150 -26 -27 -5 -66 -12 -85
-15 -19 -3 -51 -8 -70 -11 -19 -3 -48 -10 -65 -14 -16 -5 -50 -12 -75 -16 -46
-7 -310 -13 -310 -7 0 2 12 9 28 15 22 9 24 12 9 15 -37 9 -50 -5 -44 -48 3
-23 10 -46 17 -53 6 -6 51 -10 115 -10 74 0 102 -3 96 -10 -13 -15 -131 -252
-131 -262 0 -5 21 27 47 71 62 107 139 212 155 212 36 0 219 28 318 48 14 3
63 12 110 21 47 8 102 24 122 34 l37 19 11 -35 c12 -34 35 -54 64 -54 9 0 16
6 16 13 0 18 38 57 55 57 15 0 45 -26 45 -40 0 -4 -15 -11 -34 -14 -50 -10
-60 -27 -49 -84 13 -67 -9 -127 -72 -195 -46 -51 -82 -66 -68 -30 5 12 1 14
-17 8 -36 -11 -44 15 -14 46 l25 26 -31 13 c-17 7 -45 33 -62 57 -78 114 -227
92 -283 -40 -20 -49 -12 -95 28 -167 17 -30 29 -57 27 -60 -3 -3 5 -9 17 -15
26 -11 30 -25 8 -25 -8 0 -15 -3 -15 -7 0 -15 26 -81 36 -94 6 -8 14 -36 18
-64 5 -41 13 -56 44 -84 20 -19 62 -58 92 -86 30 -27 88 -79 129 -115 41 -36
80 -71 87 -78 20 -19 44 -111 40 -152 -2 -19 1 -43 6 -52 10 -21 -13 -38 -89
-64 -29 -10 -53 -22 -53 -27 0 -9 15 -5 108 28 59 21 63 22 72 5 51 -94 76
-377 41 -456 -19 -41 -53 -81 -102 -119 -15 -12 -40 -48 -56 -80 -41 -83 -97
-159 -170 -231 -43 -42 -63 -70 -64 -88 -1 -14 -2 -32 -2 -38 -1 -7 3 -32 7
-56 11 -62 37 -76 132 -70 75 5 100 17 89 45 -5 15 50 90 119 161 l51 53 40
-46 c24 -27 50 -46 65 -48 26 -2 24 -8 48 110 5 26 13 39 29 43 22 5 150 119
303 269 61 60 102 92 146 111 51 23 70 40 117 101 32 40 57 83 57 95 0 45 -66
64 -108 31 -7 -5 -13 -8 -15 -6 -1 2 -31 63 -67 134 -56 112 -76 141 -143 210
-73 74 -118 135 -100 135 5 0 -5 10 -20 23 l-28 22 53 55 c257 263 391 780
288 1112 -54 174 -188 302 -357 342 -78 18 -271 19 -349 1z m136 -170 c189
-22 367 -177 429 -372 31 -97 38 -146 35 -245 -5 -183 -67 -358 -199 -563 -55
-86 -65 -99 -130 -174 -72 -83 -180 -181 -199 -181 -5 0 6 11 25 25 40 30 157
150 188 194 17 24 19 31 8 31 -8 0 -17 8 -19 18 -13 48 -140 222 -207 282 -39
36 -71 70 -71 76 0 6 27 61 60 122 41 77 66 139 81 199 11 49 26 98 31 110 12
24 -6 58 -24 47 -5 -3 -20 -3 -34 0 -26 7 -32 31 -10 39 24 9 14 45 -15 58
-33 13 -37 23 -34 68 3 35 -12 60 -31 54 -6 -2 -9 -14 -7 -26 4 -20 -2 -24
-59 -39 -59 -16 -64 -16 -75 -1 -7 9 -15 15 -17 12 -3 -2 3 -15 12 -27 17 -21
20 -22 57 -9 64 22 95 28 95 18 0 -5 -30 -19 -66 -31 -72 -24 -65 -26 -100 31
-15 23 -69 53 -83 45 -3 -2 -31 -7 -61 -10 -30 -4 -80 -11 -110 -16 -30 -5
-75 -12 -100 -15 -25 -4 -62 -10 -82 -15 -55 -12 -52 -7 37 66 162 132 337
214 489 230 33 4 62 8 64 9 3 3 50 -1 122 -10z m-326 -731 c3 -9 11 -12 18 -8
10 6 9 3 0 -9 -8 -9 -11 -21 -7 -27 3 -5 1 -10 -4 -10 -6 0 -11 11 -11 23 0
13 -3 26 -6 30 -9 9 -65 -14 -58 -24 3 -5 -3 -6 -12 -2 -13 5 -10 10 17 24 42
23 55 23 63 3z m-239 -54 c-3 -5 -14 -10 -23 -9 -14 0 -13 2 3 9 27 11 27 11
20 0z m195 0 c-18 -12 -43 -13 -36 -2 2 4 15 8 28 9 18 2 19 0 8 -7z m-176
-66 c28 -17 29 -17 43 2 13 18 12 19 -16 22 -17 2 -31 7 -31 11 0 4 10 7 23 6
12 -1 31 5 41 14 12 10 17 11 11 2 -6 -10 -1 -12 26 -6 25 4 30 3 19 -4 -8 -6
-25 -11 -38 -11 -12 0 -21 -3 -20 -7 1 -5 -2 -20 -6 -35 -6 -20 -12 -25 -25
-20 -29 12 -100 66 -106 82 -4 8 6 3 22 -11 15 -15 41 -35 57 -45z m236 46 c0
-13 -61 -51 -72 -44 -4 3 -8 0 -8 -7 0 -7 -3 -9 -6 -6 -4 3 -15 2 -25 -4 -13
-6 -19 -6 -19 1 0 5 6 10 14 10 8 0 22 7 30 16 9 8 16 10 16 4 0 -6 11 -5 30
5 17 9 28 20 25 25 -4 6 -1 10 4 10 6 0 11 -5 11 -10z"/>
<path d="M1633 2638 c-12 -4 -5 -7 22 -9 40 -2 61 -5 80 -9 6 -1 13 -2 17 -1
11 1 21 -46 14 -64 -3 -9 -12 -12 -22 -8 -14 5 -16 3 -11 -11 6 -15 3 -17 -26
-11 -31 6 -31 5 -12 -10 11 -9 33 -19 49 -22 19 -4 32 -16 42 -37 12 -28 13
-28 15 -8 3 39 4 43 15 50 11 7 18 32 15 60 0 6 -9 12 -20 12 -11 0 -23 12
-31 30 -7 17 -22 33 -36 36 -36 9 -92 10 -111 2z"/>
<path d="M1487 2632 c-24 -3 -26 -6 -16 -18 8 -9 15 -11 19 -5 3 6 31 11 63
12 31 1 54 6 51 10 -4 8 -54 8 -117 1z"/>
</g>
</svg>
