<svg xmlns="http://www.w3.org/2000/svg" xmlns:xlink="http://www.w3.org/1999/xlink" width="120" height="120" viewBox="0 0 120 120">
  <defs>
    <clipPath id="clip-path">
      <rect id="Rectangle_3" data-name="Rectangle 3" width="120" height="120" transform="translate(3182 80)" fill="none"/>
    </clipPath>
  </defs>
  <g id="matches" transform="translate(-3182 -80)" clip-path="url(#clip-path)">
    <g id="_023---Cricket" data-name="023---Cricket" transform="translate(3182 81.023)">
      <path id="Shape" d="M119.4,18.141,103.576,33.963l-7.2-7.2L112.2,10.779a2.034,2.034,0,0,1,2.888,0l4.311,4.474a2.034,2.034,0,0,1,0,2.888Z" fill="#fff"/>
      <path id="Shape-2" data-name="Shape" d="M58.977,0V4.067H56.944a6.1,6.1,0,0,0-6.1,6.1H46.775a6.1,6.1,0,0,0-6.1-6.1H38.64V2.034A2.034,2.034,0,0,1,40.674,0Z" fill="#fff"/>
      <path id="Shape-3" data-name="Shape" d="M30.729,31.441a15.66,15.66,0,0,0-1.708-2.664L6.406,51.371A16.127,16.127,0,0,0,9.07,53.1Z" fill="#fff"/>
      <path id="Shape-4" data-name="Shape" d="M23.449,24.181,1.79,45.819A16.8,16.8,0,0,0,3.518,48.5L26.133,25.909a16.27,16.27,0,0,0-2.684-1.729Z" fill="#fff"/>
      <path id="Shape-5" data-name="Shape" d="M19.2,22.676a14.032,14.032,0,0,0-2.929-.305A16.636,16.636,0,0,0,0,38.64a14.033,14.033,0,0,0,.305,2.929Z" fill="#fff"/>
      <path id="Shape-6" data-name="Shape" d="M13.321,54.6a14.236,14.236,0,0,0,2.949.305,16.636,16.636,0,0,0,16.27-16.27,15.6,15.6,0,0,0-.305-2.949Z" fill="#fff"/>
      <path id="Shape-7" data-name="Shape" d="M79.314,2.034V4.067H77.281a6.1,6.1,0,0,0-6.1,6.1H67.112a6.1,6.1,0,0,0-6.1-6.1H58.977V0h18.3A2.034,2.034,0,0,1,79.314,2.034Z" fill="#fff"/>
      <path id="Shape-8" data-name="Shape" d="M83.382,10.168V25.381l-8.135,8.135V10.168a2.034,2.034,0,0,1,2.034-2.034h4.067A2.034,2.034,0,0,1,83.382,10.168Z" fill="#fff"/>
      <path id="Shape-9" data-name="Shape" d="M83.382,68.515v47.406a2.034,2.034,0,0,1-2.034,2.034H77.281a2.034,2.034,0,0,1-2.034-2.034V76.65Z" fill="#fff"/>
      <path id="Shape-10" data-name="Shape" d="M63.045,10.168V45.657L54.91,53.791V10.168a2.034,2.034,0,0,1,2.034-2.034h4.067A2.034,2.034,0,0,1,63.045,10.168Z" fill="#fff"/>
      <path id="Shape-11" data-name="Shape" d="M63.045,88.852v27.069a2.034,2.034,0,0,1-2.034,2.034H56.944a2.034,2.034,0,0,1-2.034-2.034V96.987Z" fill="#fff"/>
      <path id="Shape-12" data-name="Shape" d="M42.708,10.168V65.932l-8.135,8.135v-63.9a2.034,2.034,0,0,1,2.034-2.034h4.067a2.034,2.034,0,0,1,2.034,2.034Z" fill="#fff"/>
      <path id="Shape-13" data-name="Shape" d="M42.708,109.189v6.732a2.034,2.034,0,0,1-2.034,2.034H36.607A2.034,2.034,0,0,1,34.9,117Z" fill="#fff"/>
      <path id="Shape-14" data-name="Shape" d="M102.539,43.623,28.818,117.344a2.034,2.034,0,0,1-2.888,0l-13.1-12.975a2.034,2.034,0,0,1,0-2.868L86.717,27.8a2.034,2.034,0,0,1,2.359-.386l4.474,2.237,7.179,7.179,2.237,4.433a2.034,2.034,0,0,1-.427,2.359Z" fill="#fff"/>
      <path id="Shape-15" data-name="Shape" d="M102.539,43.623,28.818,117.344a2.034,2.034,0,0,1-2.888,0l-13.1-12.975a2.034,2.034,0,0,1,0-2.868L86.717,27.8a2.034,2.034,0,0,1,2.359-.386l4.474,2.237,7.179,7.179,2.237,4.433a2.034,2.034,0,0,1-.427,2.359Z" fill="#fff"/>
    </g>
  </g>
</svg>
