<svg id="trivia" xmlns="http://www.w3.org/2000/svg" width="115.599" height="120.312" viewBox="0 0 115.599 120.312">
  <g id="Group_1" data-name="Group 1" transform="translate(0)">
    <path id="Path_1" data-name="Path 1" d="M59.252,0A39.776,39.776,0,0,0,48.786,1.4a2.481,2.481,0,1,0,1.305,4.786A34.751,34.751,0,0,1,93.981,39.69c0,17.793-7.1,24.743-13.355,30.874-4.077,3.993-7.951,7.792-8.8,13.778H46.676c-.847-5.986-4.721-9.785-8.8-13.778-6.26-6.131-13.355-13.081-13.355-30.874a34.74,34.74,0,0,1,8.2-22.415,2.481,2.481,0,0,0-3.787-3.2,39.708,39.708,0,0,0-9.379,25.62c0,19.879,8.231,27.941,14.845,34.419C38.173,77.8,41.03,80.6,41.724,84.79a8.06,8.06,0,0,0,.163,15.285v5.354h-.62a2.481,2.481,0,1,0,0,4.961h.62v2.481a7.45,7.45,0,0,0,7.442,7.442H69.175a7.45,7.45,0,0,0,7.442-7.442V110.39h.62a2.481,2.481,0,0,0,0-4.961h-.62v-5.354A8.06,8.06,0,0,0,76.78,84.79C77.474,80.6,80.332,77.8,84.1,74.109c6.614-6.478,14.845-14.54,14.845-34.419A39.735,39.735,0,0,0,59.252,0Zm12.4,112.87a2.483,2.483,0,0,1-2.481,2.481H49.33a2.483,2.483,0,0,1-2.481-2.481v-2.481H71.656Zm-24.806-7.442v-4.962H71.656v4.962Zm27.287-9.923H44.368a3.1,3.1,0,1,1,0-6.2H74.136a3.1,3.1,0,1,1,0,6.2Z" transform="translate(-1.453)" fill="#fff"/>
    <path id="Path_2" data-name="Path 2" d="M10.438,40.528a2.481,2.481,0,0,0,0-4.961H4.733a2.481,2.481,0,0,0,0,4.961Z" transform="translate(-2.253 1.643)" fill="#fff"/>
    <path id="Path_3" data-name="Path 3" d="M15.736,59.611,5.854,65.316a2.481,2.481,0,1,0,2.481,4.3l9.882-5.705a2.481,2.481,0,0,0-2.481-4.3Z" transform="translate(-2.144 2.738)" fill="#fff"/>
    <path id="Path_4" data-name="Path 4" d="M109.8,65.316,99.919,59.61a2.481,2.481,0,0,0-2.481,4.3l9.882,5.705a2.481,2.481,0,1,0,2.481-4.3Z" transform="translate(2.087 2.738)" fill="#fff"/>
    <path id="Path_5" data-name="Path 5" d="M110.738,35.567h-5.705a2.481,2.481,0,0,0,0,4.961h5.705a2.481,2.481,0,1,0,0-4.961Z" transform="translate(2.381 1.643)" fill="#fff"/>
    <path id="Path_6" data-name="Path 6" d="M98.681,17.069a2.469,2.469,0,0,0,1.238-.333l9.882-5.705a2.481,2.481,0,1,0-2.481-4.3L97.439,12.44a2.481,2.481,0,0,0,1.243,4.629Z" transform="translate(2.087 0.296)" fill="#fff"/>
    <path id="Path_7" data-name="Path 7" d="M18.217,12.44,8.335,6.734a2.481,2.481,0,0,0-2.481,4.3l9.882,5.705a2.481,2.481,0,1,0,2.481-4.3Z" transform="translate(-2.144 0.296)" fill="#fff"/>
    <path id="Path_8" data-name="Path 8" d="M66.441,53.183a44.436,44.436,0,0,1,4.988-5.591,18.761,18.761,0,0,0,4.061-6.066A18.6,18.6,0,1,0,39.716,34.39a7.442,7.442,0,1,0,14.884,0,3.721,3.721,0,1,1,7.165,1.425,3.919,3.919,0,0,1-.86,1.253,52.513,52.513,0,0,0-6.85,7.9,17,17,0,0,0-3.176,9.723,7.412,7.412,0,0,0,1.9,4.962,7.441,7.441,0,1,0,12.983,4.963v0a7.412,7.412,0,0,0-1.9-4.962,7.412,7.412,0,0,0,1.9-4.962A3.154,3.154,0,0,1,66.441,53.183Zm-8.255-5.465a48.26,48.26,0,0,1,6.228-7.141,8.846,8.846,0,0,0,1.929-2.849,8.685,8.685,0,1,0-16.7-3.337,2.481,2.481,0,0,1-4.961,0,13.644,13.644,0,1,1,26.235,5.224,13.831,13.831,0,0,1-2.991,4.47,44.8,44.8,0,0,0-5.61,6.351A7.617,7.617,0,0,0,60.8,54.693a2.481,2.481,0,0,1-4.961,0,12.115,12.115,0,0,1,2.345-6.975Zm2.616,16.9a2.481,2.481,0,1,1-2.481-2.482A2.483,2.483,0,0,1,60.8,64.618Z" transform="translate(-0.522 0.729)" fill="#fff"/>
    <path id="Path_9" data-name="Path 9" d="M38.475,10.542a2.481,2.481,0,0,0,0-4.961h0a2.481,2.481,0,0,0,0,4.961Z" transform="translate(-0.694 0.258)" fill="#fff"/>
  </g>
</svg>
